<svg xmlns="http://www.w3.org/2000/svg" width="512" height="512" viewBox="0 0 512 512"><g transform="translate(-946 -183)"><path d="M-3738,155c0-141.385,114.615-256,256-256s256,114.615,256,256a254.84,254.84,0,0,1-41.094,139.166c2.145,41.842,9.925,94.806,34.767,110.561,31.737,20.129-63.6-13.005-115.5-31.661A254.826,254.826,0,0,1-3482,411C-3623.385,411-3738,296.385-3738,155Z" transform="translate(4684 284)" fill="#333"/><circle cx="200.5" cy="200.5" r="200.5" transform="translate(1002 239)" fill="#fff"/><path d="M24.853,367.762a16.564,16.564,0,0,1-5.4-10.472l.049,0,5.452-156.127v-4.938l-6.126-1.715s-.706-3.9-2.7-5.723c-1.8-1.649-7.808-3.274-8.93-3.567H7.068l-.008-.036-.041-.01h.038c-1.17-5.318-2.1-10.615-2.764-15.748C3.272,163.206,2.416,156.6,1.749,149.8.589,137.952,0,125.531,0,112.888A371.151,371.151,0,0,1,2.513,68.946,236.526,236.526,0,0,1,9.365,33.064C12.3,22.7,15.722,14.558,19.53,8.871a25.647,25.647,0,0,1,6-6.578A10.964,10.964,0,0,1,31.976,0a9.239,9.239,0,0,1,1.393.105A14.182,14.182,0,0,1,35.1,0,14.04,14.04,0,0,1,49.135,14.038V261.246l3.344,95.774a16.52,16.52,0,0,1-3.344,8.492v.2h-.156a16.606,16.606,0,0,1-24.126,2.049Z" transform="matrix(0.719, 0.695, -0.695, 0.719, 1328.967, 336.158)" fill="#333"/><path d="M17.225,349.293h.032l8.134-232.927q-1.394-.34-2.76-.793A35.865,35.865,0,0,1,0,93.09L11.2.382C11.4.22,11.543.1,11.672,0h2.609L10.668,70.567A4.667,4.667,0,0,0,18.976,72.1a2.462,2.462,0,0,0,.581-1.1c.024-.065.042-.118.059-.168l-.007-.138c.005-.046.008-.087.01-.126L23.316,0h3.743l1.23,70.457a4.664,4.664,0,0,0,4.66,4.581h.083c.094,0,.185-.006.278-.013a4.712,4.712,0,0,0,.855.119h.368a4.706,4.706,0,0,0,.854-.107h.084a4.662,4.662,0,0,0,4.66-4.581L41.362,0h3.512a2.512,2.512,0,0,0-.017.452l3.7,70.5-.037.713c.036.139.08.279.135.43a2.458,2.458,0,0,0,.59,1.112,4.666,4.666,0,0,0,8.223-1.281L53.78,0h2.343c.361.286.729.59,1.094.9L68.2,91.821a35.86,35.86,0,0,1-22.721,23.647q-1.318.451-2.665.8l8.137,233.029h.033a17.006,17.006,0,0,1-33.757,0Z" transform="matrix(0.719, 0.695, -0.695, 0.719, 1254.992, 275.564)" fill="#333"/></g></svg>