<svg xmlns="http://www.w3.org/2000/svg" width="514.847" height="506.5" viewBox="0 0 514.847 506.5"><g transform="translate(-286.024 -280.759)"><path d="M494.87,362.012h0L397.142,333.4c-20.073,9.6-43.063,16.87-68.332,21.6a404.615,404.615,0,0,1-74.207,6.542h-1.12l36.884-38.194.7-.729L420.115,188.989l4.5-4.661a16,16,0,0,0-.394-22.624l-2.762-2.667c-.266-.257-.544-.508-.827-.746-.208-.236-.428-.467-.656-.687A14,14,0,0,0,412.025,154a23.709,23.709,0,0,0-3.343-.225,38.351,38.351,0,0,0-8,.943,78.924,78.924,0,0,0-14.216,4.74,155.673,155.673,0,0,0-16.569,8.462,301.62,301.62,0,0,0-38.111,26.871,473.947,473.947,0,0,0-41.27,38.12c-11.207,11.6-21.681,23.531-31.129,35.448C253.974,275.18,248.9,282,244.318,288.634c-3.937,5.3-7.78,10.987-11.422,16.906l-.034-.033s.021.035.028.045c-.009.013-.017.027-.025.04l.122.118c.807,1.325,4.844,8.089,5.038,11.194.212,3.4-2.567,7.607-2.6,7.649l4.1,7.007-4.375,4.532-25.025,24.166a395.548,395.548,0,0,1-54.707-6.956,264.391,264.391,0,0,1-25.752-6.6,204.418,204.418,0,0,1-24.111-9.207L232.4,196.622c1.021.58,2.082,1.129,3.154,1.633a45.514,45.514,0,0,0,13.9,3.98,45.869,45.869,0,0,0,14.327-.529,45.446,45.446,0,0,0,13.6-5.02l70.531-93.218c-.053-.576-.121-1.181-.2-1.8l-2.151-2.077L285.174,168.9a5.954,5.954,0,0,1-8.689-6.107,3.144,3.144,0,0,1,.448-1.56c.081-.179.167-.349.255-.506l.656-.613,59.13-68.021a3.179,3.179,0,0,1,.417-.4l-3.226-3.115-63.6,63.6a5.921,5.921,0,0,1-4.16,1.743h-.046a5.923,5.923,0,0,1-4.137-1.671l-.074-.072a5.966,5.966,0,0,1-.979-.751l0,0-.043-.042-.041-.04-.009-.009-.01-.01-.012-.012-.008-.008-.009-.01-.008-.008a5.934,5.934,0,0,1-.773-.962c-.094-.078-.178-.152-.266-.234l-.076-.072a5.95,5.95,0,0,1-.217-8.339L321.033,75.9,317.6,72.578l-65.968,61.516c-.03.028-.07.065-.12.106l-.114.131c-.068.036-.131.068-.2.1a3.143,3.143,0,0,1-1.529.5,5.957,5.957,0,0,1-6.26-8.777L309.3,64.567l-2.4-2.314c-.236-.024-.475-.045-.774-.068l-92.489,75.2a45.78,45.78,0,0,0,.845,40.713c.563,1.075,1.18,2.143,1.831,3.174L74.169,318.541a133.172,133.172,0,0,1-22.451-22.375,182.926,182.926,0,0,1-21.253-35.483A301.275,301.275,0,0,1,14.15,216.573,369.5,369.5,0,0,1,3.69,168.006,339.134,339.134,0,0,1,0,119.147a120.194,120.194,0,0,1,1.5-18.634A137.851,137.851,0,0,1,5.679,82.295a147.908,147.908,0,0,1,6.4-17.244,144.246,144.246,0,0,1,8.143-15.713,109.2,109.2,0,0,1,19.655-24.6,60.209,60.209,0,0,1,10.575-7.777A34.628,34.628,0,0,1,60.9,12.938c11.957-2.775,26.48-4.65,44.4-5.73C120.269,6.3,138,5.9,162.8,5.9c12.6,0,26.013.1,40.219.2,16.368.12,33.29.243,51.581.243,26.811,0,51.506-1.923,73.293-3.619C345.914,1.325,362.932,0,378.172,0c16.3,0,29.035,1.5,40.08,4.716A75.353,75.353,0,0,1,450.4,23.127a177.692,177.692,0,0,1,14.47,15.687,146.668,146.668,0,0,1,14.451,21.218A125.088,125.088,0,0,1,490.428,86.8a119.231,119.231,0,0,1,4.441,32.344c0,25.962-.3,55.961-3.854,83.426-3.9,30.148-11.187,53.12-22.269,70.229l26.122,89.211v0h0Z" transform="translate(306.002 425.247)" fill="#d91f1f"/><path d="M.251,111.452c-.167-2.4-.251-4.846-.251-7.26a104.27,104.27,0,0,1,2.132-21A103.237,103.237,0,0,1,17.918,45.937,104.935,104.935,0,0,1,83.774,2.117,106.407,106.407,0,0,1,104.919,0c.441,0,.87,0,1.309.008A147.258,147.258,0,0,0,65.61,14.886,135.238,135.238,0,0,0,32.778,39.865a120.278,120.278,0,0,0-22.6,32.915A109.883,109.883,0,0,0,.253,111.452Z" transform="matrix(0.819, -0.574, 0.574, 0.819, 286.024, 514.32)" fill="#fff"/><path d="M124.751,115.233c-9.7-7.818-10.042-19.96-11.791-27.208A189.3,189.3,0,0,0,85.9,86.591C13.425,88.548,0,64.536,0,64.536s13.784,13.138,48.389-3.073A80.8,80.8,0,0,1,61,55.623C51.374,36.611,59.74,15.6,59.74,15.6s-3.613,22.447,55.685,22.023q1.243-.5,2.485-1.022C144.292,25.536,122.4,0,122.4,0s20.7,13.977,44.329,31.643C203.6,22.314,214.423,5.38,214.423,5.38s-.091,25.254-19.224,48.46c10.652,8.947,11.828,14.982,23.379,20.336C239.3,83.783,266.552,71.4,266.552,71.4s-29.027,30.4-62.458,29.7c-15.01-.314-30.823-2.882-46.863-5.776-3.8,18.273,11.416,34.142,11.416,34.142S138.377,126.212,124.751,115.233Z" transform="translate(693.98 486.085) rotate(173)" fill="#07aa6e"/><path d="M11.326,10.729c8.793-13.994,14.289-14.613,23.846,0S17.649,46.924,17.649,81.992,36.753,133.748,35.172,151s-15.053,21.074-23.846,0S0,101.772,0,66.7,2.533,24.723,11.326,10.729Z" transform="translate(576.777 280.759) rotate(21)" fill="#016535"/></g></svg>