<svg xmlns="http://www.w3.org/2000/svg" width="1780.976" height="375.622" viewBox="0 0 1780.976 375.622"><g transform="translate(-137.024 -389.377)"><text transform="translate(577 697)" fill="#9a451f" font-size="202" font-family="Roboto-Medium, Roboto" font-weight="500"><tspan x="0" y="0">#</tspan><tspan y="0" fill="#333">SNACKAMAT</tspan></text><g transform="translate(137.024 389.377)"><path d="M367,268.469l-72.475-21.222a205.144,205.144,0,0,1-50.676,16.021,300.069,300.069,0,0,1-55.032,4.851h-.83L215.337,239.8l.524-.542,95.7-99.1,2.349-2.433a13.3,13.3,0,0,0-1.573-19.855,8.643,8.643,0,0,0-.878-.988,10.409,10.409,0,0,0-5.9-2.677,17.608,17.608,0,0,0-2.478-.167,28.436,28.436,0,0,0-5.935.7c-6.333,1.369-14.015,4.663-22.83,9.791a223.521,223.521,0,0,0-28.263,19.928,351.317,351.317,0,0,0-30.606,28.269c-8.315,8.612-16.083,17.457-23.086,26.289-4.016,5.066-7.777,10.128-11.177,15.044-2.918,3.929-5.767,8.146-8.466,12.533l-.026-.025.018.029,0,.005-.018.03.09.087c.6.984,3.593,6.008,3.736,8.3.156,2.519-1.9,5.641-1.925,5.673l3.044,5.2-3.236,3.353-18.567,17.93a293.336,293.336,0,0,1-40.571-5.159,196.079,196.079,0,0,1-19.1-4.9,151.6,151.6,0,0,1-17.881-6.828l94.065-104.468c.756.43,1.543.838,2.339,1.211A33.742,33.742,0,0,0,185,149.978a33.977,33.977,0,0,0,10.624-.392,33.685,33.685,0,0,0,10.089-3.722L258.02,76.731c-.039-.427-.089-.877-.15-1.336l-1.595-1.54-44.79,51.4a4.417,4.417,0,0,1-6.442-4.535,2.35,2.35,0,0,1,.331-1.148c.055-.122.118-.249.189-.376l.486-.454L249.9,68.3a2.336,2.336,0,0,1,.309-.3l-2.392-2.31L200.65,112.86a4.386,4.386,0,0,1-3.085,1.292h-.038a4.387,4.387,0,0,1-3.062-1.238l-.056-.055a4.509,4.509,0,0,1-.653-.489l-.007-.007-.007-.005-.021-.019-.021-.021-.009-.006-.006-.006-.037-.036-.039-.037-.008-.009-.006-.006-.022-.022-.015-.015-.007-.007a.059.059,0,0,0-.009-.01l-.008-.008-.01-.01-.005-.006-.007-.008-.005-.005a4.358,4.358,0,0,1-.506-.644c-.058-.047-.119-.1-.2-.173l-.059-.055a4.413,4.413,0,0,1-.159-6.182L238.08,56.285l-2.55-2.462-48.92,45.62c-.03.028-.059.054-.09.08l-.085.1c-.044.023-.088.045-.132.067l-.018.01a2.347,2.347,0,0,1-1.12.369,4.419,4.419,0,0,1-4.653-6.505l48.867-45.679L227.6,46.166c-.228-.022-.4-.038-.574-.051l-68.59,55.767a33.952,33.952,0,0,0,.626,30.194c.423.806.88,1.6,1.358,2.354L55,236.23a98.758,98.758,0,0,1-16.65-16.593,135.649,135.649,0,0,1-15.762-26.315,223.432,223.432,0,0,1-12.1-32.712,274.011,274.011,0,0,1-7.757-36.018A251.492,251.492,0,0,1,0,88.359,94.963,94.963,0,0,1,4.212,61.03,109.564,109.564,0,0,1,14.995,36.589,80.979,80.979,0,0,1,29.57,18.342a44.649,44.649,0,0,1,7.842-5.768,25.68,25.68,0,0,1,7.749-2.979C54.03,7.536,64.8,6.146,78.094,5.344c11.1-.67,24.259-.968,42.656-.968,9.335,0,19.279.073,29.807.149h.017c12.131.089,24.674.18,38.241.18,19.883,0,38.2-1.426,54.353-2.684C256.531.982,269.151,0,280.454,0c12.087,0,21.532,1.111,29.724,3.5A55.883,55.883,0,0,1,334.02,17.151a131.768,131.768,0,0,1,10.731,11.634A108.757,108.757,0,0,1,355.468,44.52,92.765,92.765,0,0,1,363.7,64.372,88.425,88.425,0,0,1,367,88.359c0,19.253-.221,41.5-2.858,61.869-2.894,22.357-8.3,39.393-16.515,52.082L367,268.469v0h0v0h0Z" transform="translate(14.816 107.152)" fill="#d91f1f"/><path d="M.186,82.653C.063,80.871,0,79.06,0,77.269A77.327,77.327,0,0,1,1.581,61.7,76.561,76.561,0,0,1,13.288,34.067,77.82,77.82,0,0,1,62.127,1.57,78.912,78.912,0,0,1,77.808,0c.327,0,.645,0,.971.006A109.207,109.207,0,0,0,48.656,11.04,100.293,100.293,0,0,0,24.308,29.564a89.2,89.2,0,0,0-16.76,24.41A81.489,81.489,0,0,0,.188,82.653Z" transform="matrix(0.819, -0.574, 0.574, 0.819, 0, 173.209)" fill="#fff"/><path d="M92.516,85.457c-7.2-5.8-7.447-14.8-8.744-20.178a140.387,140.387,0,0,0-20.065-1.063C9.956,65.667,0,47.86,0,47.86S10.222,57.6,35.886,45.581a59.919,59.919,0,0,1,9.35-4.331C38.1,27.151,44.3,11.569,44.3,11.569S41.624,28.215,85.6,27.9q.922-.372,1.843-.758C107.008,18.937,90.775,0,90.775,0S106.13,10.365,123.65,23.466C150.993,16.548,159.017,3.99,159.017,3.99a62.257,62.257,0,0,1-14.256,35.938c7.9,6.635,8.771,11.111,17.338,15.081,15.369,7.124,35.578-2.055,35.578-2.055S176.15,75.5,151.357,74.978c-11.131-.233-22.859-2.137-34.754-4.283-2.821,13.552,8.466,25.319,8.466,25.319S102.621,93.6,92.516,85.457Z" transform="translate(302.543 152.27) rotate(173)" fill="#07aa6e"/><path d="M8.4,7.957C14.92-2.421,19-2.881,26.084,7.957s-13,26.842-13,52.849,14.168,38.383,13,51.177-11.163,15.628-17.684,0S0,75.475,0,49.468,1.878,18.334,8.4,7.957Z" transform="translate(215.624 0) rotate(21)" fill="#016535"/></g></g></svg>