<svg xmlns="http://www.w3.org/2000/svg" width="1181.252" height="201.865" viewBox="0 0 1181.252 201.865"><g transform="translate(-653.748 -249.689)"><g transform="translate(653.748 249.689)" fill="none"><path d="M74.148,186.089,0,201.865,14.419,134.1a73.127,73.127,0,0,1-8.091-33.163C6.328,45.189,71.916,0,152.822,0S299.317,45.189,299.317,100.932,233.729,201.865,152.822,201.865C123.865,201.865,96.875,196.078,74.148,186.089Z" stroke="none"/><path d="M 152.8221282958984 185.8646240234375 C 223.5575408935547 185.8646240234375 283.3167419433594 146.9703521728516 283.3167419433594 100.9323043823242 C 283.3167419433594 54.89425277709961 223.5575408935547 15.9999885559082 152.8221282958984 15.9999885559082 C 82.08702087402344 15.9999885559082 22.32801818847656 54.89425277709961 22.32801818847656 100.9323043823242 C 22.32801818847656 109.774040222168 24.47275543212891 118.5060424804688 28.70259666442871 126.8856201171875 L 31.2413330078125 131.9149932861328 L 30.0688591003418 137.4254150390625 L 20.77934837341309 181.08544921875 L 70.81781005859375 170.4391479492188 L 75.86317443847656 169.3656768798828 L 80.58549499511719 171.4412536621094 C 102.0537567138672 180.8770904541016 127.0328063964844 185.8646240234375 152.8221282958984 185.8646240234375 M 152.8221282958984 201.8646240234375 C 123.8648071289062 201.8646240234375 96.87533569335938 196.0783081054688 74.14749145507812 186.0888366699219 L 1.780941602191888e-05 201.8646240234375 L 14.41917610168457 134.0956268310547 C 9.17543888092041 123.7074584960938 6.328017711639404 112.5512008666992 6.328017711639404 100.9323043823242 C 6.328017711639404 45.18893432617188 71.91548919677734 -1.140714903158369e-05 152.8221282958984 -1.140714903158369e-05 C 233.7286987304688 -1.140714903158369e-05 299.3167419433594 45.18893432617188 299.3167419433594 100.9323043823242 C 299.3167419433594 156.6756744384766 233.7286987304688 201.8646240234375 152.8221282958984 201.8646240234375 Z" stroke="none" fill="#9a451f"/></g><g transform="translate(734.327 287.546)" fill="#f6a22f"><path d="M 135.8929748535156 43.16519927978516 L 1.539752602577209 43.16519927978516 C 1.816223978996277 37.95858764648438 3.534297466278076 32.89691162109375 6.65737247467041 28.09752655029297 C 8.317445755004883 25.5463809967041 10.37597274780273 23.08216285705566 12.77573585510254 20.7733268737793 C 15.16579055786133 18.47385406494141 17.9140453338623 16.30927276611328 20.94417190551758 14.33974552154541 C 27.12539100646973 10.32201766967773 34.33299255371094 7.164981365203857 42.36677169799805 4.956326961517334 C 50.70899200439453 2.662872314453125 59.57442855834961 1.499999642372131 68.71681213378906 1.499999642372131 C 77.85897064208984 1.499999642372131 86.72422790527344 2.662872314453125 95.06631469726562 4.956308841705322 C 103.0999526977539 7.164981365203857 110.3074645996094 10.32201766967773 116.4886474609375 14.33974552154541 C 119.5187149047852 16.30925369262695 122.2669525146484 18.47383689880371 124.6570281982422 20.7733268737793 C 127.0567398071289 23.08212661743164 129.1152496337891 25.54634475708008 130.7753601074219 28.09752655029297 C 133.8984375 32.89694976806641 135.6165161132812 37.95851516723633 135.8929748535156 43.16519927978516 Z" stroke="none"/><path d="M 134.2636108398438 41.66519927978516 C 133.7666778564453 37.27753829956055 132.1765594482422 33.00100326538086 129.5181121826172 28.91563987731934 C 127.9201126098633 26.45989990234375 125.9346923828125 24.08411979675293 123.617057800293 21.8542594909668 C 121.295295715332 19.62047958374023 118.6218948364258 17.51535987854004 115.6711578369141 15.59739971160889 C 109.6195755004883 11.66389942169189 102.553337097168 8.570339202880859 94.66869354248047 6.40265941619873 C 86.45607757568359 4.144819736480713 77.72459411621094 2.999999523162842 68.71681213378906 2.999999523162842 C 59.70879364013672 2.999999523162842 50.97713470458984 4.144819736480713 42.7643928527832 6.40265941619873 C 34.87969589233398 8.570339202880859 27.8133544921875 11.66389942169189 21.76165390014648 15.59739971160889 C 18.81089401245117 17.51535987854004 16.13749504089355 19.62046051025391 13.81571483612061 21.8542594909668 C 11.49805450439453 24.08409881591797 9.51263427734375 26.45989990234375 7.914614200592041 28.91563987731934 C 5.256228923797607 33.00095748901367 3.66606879234314 37.27764892578125 3.169116020202637 41.66519927978516 L 134.2636108398438 41.66519927978516 M 137.4327087402344 44.66519927978516 L 1.437011724192416e-05 44.66519927978516 C 1.437011724192416e-05 38.63454055786133 1.817214369773865 32.78546142578125 5.4001145362854 27.27939987182617 C 7.122334480285645 24.63279914855957 9.253933906555176 22.08016014099121 11.73575401306152 19.69237899780273 C 14.19403457641602 17.3272590637207 17.01717376708984 15.10321998596191 20.1267147064209 13.08205986022949 C 26.43753433227539 8.980119705200195 33.78637313842773 5.759599685668945 41.96913528442383 3.509979724884033 C 50.44087600708008 1.180939674377441 59.44009399414062 -3.601074354264711e-07 68.71681213378906 -3.601074354264711e-07 C 77.99329376220703 -3.601074354264711e-07 86.99233245849609 1.180939674377441 95.46395111083984 3.509979724884033 C 103.6465911865234 5.759599685668945 110.9953536987305 8.980099678039551 117.3061141967773 13.08205986022949 C 120.4156341552734 15.10324001312256 123.2387313842773 17.3272590637207 125.6970138549805 19.69237899780273 C 128.1787872314453 22.08013916015625 130.3103942871094 24.63278007507324 132.0326080322266 27.27939987182617 C 135.6156311035156 32.78564071655273 137.4324951171875 38.63473892211914 137.4327087402344 44.66419982910156 L 137.4327087402344 44.66519927978516 Z" stroke="none" fill="#6d3720"/></g><g transform="translate(734.327 378.536)" fill="#f6a22f"><path d="M 103.0743103027344 32.88179779052734 L 34.35841751098633 32.88179779052734 C 29.92190742492676 32.88179779052734 25.6189079284668 32.01323318481445 21.56890678405762 30.30023193359375 C 17.65634346008301 28.64535903930664 14.14216232299805 26.27594184875488 11.12401676177979 23.2577953338623 C 8.105871200561523 20.23965072631836 5.736453056335449 16.7254695892334 4.08158016204834 12.81290531158447 C 2.559180736541748 9.213569641113281 1.703752398490906 5.41428279876709 1.532239079475403 1.499105215072632 L 135.9005584716797 1.499105215072632 C 135.7292022705078 5.413247108459473 134.8737487792969 9.213058471679688 133.3511199951172 12.81290531158447 C 131.6962738037109 16.7254695892334 129.3268585205078 20.23963165283203 126.308708190918 23.2577953338623 C 123.2905654907227 26.27594184875488 119.7763824462891 28.64535903930664 115.8638153076172 30.30023193359375 C 111.8138198852539 32.01323318481445 107.5108184814453 32.88179779052734 103.0743103027344 32.88179779052734 Z" stroke="none"/><path d="M 103.0743026733398 31.38181114196777 C 107.3089828491211 31.38181114196777 111.4154052734375 30.55311012268066 115.2795028686523 28.91871070861816 C 119.0132446289062 27.33949089050293 122.3671646118164 25.07801055908203 125.2480392456055 22.19713020324707 C 128.1289215087891 19.31624984741211 130.3903961181641 15.96233081817627 131.9696350097656 12.22857093811035 C 133.21826171875 9.276517868041992 133.9966125488281 6.183201789855957 134.2944946289062 2.999110698699951 L 3.138211727142334 2.999110698699951 C 3.436088800430298 6.183194637298584 4.214457988739014 9.276507377624512 5.463101863861084 12.228590965271 C 7.042322158813477 15.96233081817627 9.303801536560059 19.31624984741211 12.18468189239502 22.19713020324707 C 15.06556224822998 25.07801055908203 18.41948127746582 27.33949089050293 22.15324211120605 28.91872978210449 C 26.0173225402832 30.55311012268066 30.12372207641602 31.38181114196777 34.35840225219727 31.38181114196777 L 103.0743026733398 31.38181114196777 M 103.0743026733398 34.38180923461914 L 34.35840225219727 34.38180923461914 C 29.72006225585938 34.38180923461914 25.2204418182373 33.47336959838867 20.98458290100098 31.68173027038574 C 16.89322280883789 29.95125007629395 13.2188024520874 27.47389030456543 10.06336212158203 24.31845092773438 C 6.90792179107666 21.16301155090332 4.430562019348145 17.48859024047852 2.700082063674927 13.39723110198975 C 0.9084420204162598 9.161370277404785 1.999511823669309e-06 4.661750793457031 1.999511823669309e-06 0.02341066859662533 L 2.199951086367946e-05 0.01125066820532084 L 4.199951217742637e-05 -0.000889331684447825 L 137.4326782226562 -0.000889331684447825 L 137.4327087402344 0.01133066788315773 L 137.4327087402344 0.02341066859662533 C 137.4327087402344 4.661750793457031 136.5242767333984 9.161370277404785 134.7326354980469 13.39723110198975 C 133.0021667480469 17.48859024047852 130.5247955322266 21.16301155090332 127.3693618774414 24.31845092773438 C 124.2139205932617 27.47389030456543 120.5395050048828 29.95125007629395 116.4481430053711 31.68173027038574 C 112.2122802734375 33.47336959838867 107.7126617431641 34.38180923461914 103.0743026733398 34.38180923461914 Z" stroke="none" fill="#6d3720"/></g><g transform="translate(735.581 379.535)" fill="#07aa6e"><path d="M 83.44425201416016 14.8436861038208 C 82.063232421875 12.88334941864014 80.27293395996094 11.22510242462158 78.19779968261719 9.995482444763184 C 75.58196258544922 8.445100784301758 72.58230590820312 7.625591278076172 69.52321624755859 7.625591278076172 C 66.464111328125 7.625591278076172 63.46445465087891 8.445100784301758 60.84854507446289 9.995536804199219 C 58.77445220947266 11.22423648834229 56.98376846313477 12.88218021392822 55.60111618041992 14.84280395507812 C 54.21847534179688 12.88218593597412 52.42778015136719 11.22424602508545 50.35350799560547 9.995428085327148 C 47.73776245117188 8.445100784301758 44.73810958862305 7.625591278076172 41.67901611328125 7.625591278076172 C 38.62087249755859 7.625591278076172 35.62127304077148 8.445082664489746 33.00448989868164 9.995464324951172 C 30.93086624145508 11.22432994842529 29.1402416229248 12.88237476348877 27.75711441040039 14.84308624267578 C 26.37443351745605 12.8822774887085 24.58373260498047 11.22433853149414 22.50930786132812 9.995428085327148 C 19.89356231689453 8.445100784301758 16.89390754699707 7.625591278076172 13.83481693267822 7.625591278076172 C 11.40954399108887 7.625591278076172 8.983362197875977 8.15126895904541 6.783135414123535 9.149665832519531 C 5.156073093414307 8.236969947814941 3.147923707962036 7.668810844421387 1.000016808509827 7.510697841644287 L 1.000016808509827 2.999700546264648 C 1.000016808509827 1.897064089775085 1.897071361541748 0.9999914169311523 2.999707698822021 0.9999914169311523 L 132.2874145507812 0.9999914169311523 C 133.3900604248047 0.9999914169311523 134.287109375 1.897064089775085 134.287109375 2.999700546264648 L 134.287109375 5.171082496643066 C 131.7918701171875 5.784806251525879 129.8057250976562 6.753606796264648 128.5727691650391 7.956732273101807 C 127.4724807739258 7.73686408996582 126.3441848754883 7.625591278076172 125.2107086181641 7.625591278076172 C 122.1525650024414 7.625591278076172 119.152961730957 8.445082664489746 116.5361785888672 9.995464324951172 C 114.4626235961914 11.22399139404297 112.6720123291016 12.8818416595459 111.2891159057617 14.84222221374512 C 109.9045944213867 12.88069248199463 108.1137084960938 11.22298717498779 106.040885925293 9.995372772216797 C 103.4252700805664 8.445100784301758 100.4256134033203 7.625591278076172 97.36650848388672 7.625591278076172 C 94.30799865722656 7.625591278076172 91.30865478515625 8.445100784301758 88.69272613525391 9.995536804199219 C 86.61832427978516 11.22488021850586 84.82732391357422 12.88306713104248 83.44425201416016 14.8436861038208 Z" stroke="none"/><path d="M 83.44469451904297 13.19572448730469 C 84.77202606201172 11.58448600769043 86.37593078613281 10.20611095428467 88.18288421630859 9.135280609130859 C 90.95306396484375 7.493440628051758 94.12870025634766 6.625600337982178 97.36650085449219 6.625600337982178 C 100.6049194335938 6.625600337982178 103.7808837890625 7.493440628051758 106.5504608154297 9.134960174560547 C 108.3565368652344 10.20458316802979 109.9606552124023 11.5829496383667 111.2889251708984 13.19497394561768 C 112.6161499023438 11.58363437652588 114.2197799682617 10.2055139541626 116.0264434814453 9.135120391845703 C 118.7974624633789 7.493380546569824 121.9733200073242 6.625600337982178 125.2107009887695 6.625600337982178 C 126.2391738891602 6.625600337982178 127.263671875 6.712193489074707 128.269287109375 6.883668422698975 C 129.4904022216797 5.847912311553955 131.2094268798828 4.997673988342285 133.287109375 4.402750492095947 L 133.287109375 2.999700546264648 C 133.287109375 2.448460578918457 132.8386383056641 2.000000476837158 132.2874298095703 2.000000476837158 L 2.999722242355347 2.000000476837158 C 2.448482275009155 2.000000476837158 2.000002384185791 2.448460578918457 2.000002384185791 2.999700546264648 L 2.000002384185791 6.606888294219971 C 3.756428003311157 6.831910610198975 5.406153202056885 7.320734024047852 6.826023101806641 8.039751052856445 C 9.032506942749023 7.112174510955811 11.43400955200195 6.625600337982178 13.83480262756348 6.625600337982178 C 17.07320213317871 6.625600337982178 20.2491626739502 7.493440628051758 23.01900291442871 9.135080337524414 C 24.82621955871582 10.20569610595703 26.43005561828613 11.58397483825684 27.75721168518066 13.1954984664917 C 29.08450126647949 11.58413887023926 30.68822288513184 10.20572280883789 32.49474334716797 9.135120391845703 C 35.26576232910156 7.493380546569824 38.44162368774414 6.625600337982178 41.67900085449219 6.625600337982178 C 44.91742324829102 6.625600337982178 48.0933837890625 7.493440628051758 50.86316299438477 9.135080337524414 C 52.67023086547852 10.20558547973633 54.27401733398438 11.58378791809082 55.60111236572266 13.19512748718262 C 56.92818069458008 11.58380603790283 58.53187561035156 10.20564365386963 60.33866119384766 9.135300636291504 C 63.10882186889648 7.493440628051758 66.28478240966797 6.625600337982178 69.52320098876953 6.625600337982178 C 72.76161956787109 6.625600337982178 75.93758392333984 7.493440628051758 78.70754241943359 9.135180473327637 C 80.51509857177734 10.20624351501465 82.11869049072266 11.58470249176025 83.44469451904297 13.19572448730469 M 83.44351959228516 16.70580101013184 L 83.44261932373047 16.70400047302246 C 82.07008361816406 14.29556083679199 80.08016204833984 12.27326011657715 77.68800354003906 10.85580062866211 C 75.22632598876953 9.396780967712402 72.40298461914062 8.625600814819336 69.52320098876953 8.625600814819336 C 66.64344024658203 8.625600814819336 63.82008361816406 9.396780967712402 61.35840225219727 10.85580062866211 C 58.96720123291016 12.27236080169678 56.97636413574219 14.29462051391602 55.60110092163086 16.70400047302246 C 54.22618103027344 14.2951602935791 52.23592376708984 12.27290058135986 49.84380340576172 10.85580062866211 C 47.38212203979492 9.396780967712402 44.55878067016602 8.625600814819336 41.67900085449219 8.625600814819336 C 38.80014419555664 8.625600814819336 35.97680282592773 9.396780967712402 33.51420211791992 10.85580062866211 C 31.1239013671875 12.27236080169678 29.1330623626709 14.29462051391602 27.75690269470215 16.70400047302246 C 26.38198280334473 14.2951602935791 24.39172172546387 12.27290058135986 21.9996223449707 10.85580062866211 C 19.53792190551758 9.396780967712402 16.7145824432373 8.625600814819336 13.83480262756348 8.625600814819336 C 11.37828254699707 8.625600814819336 8.921222686767578 9.198220252990723 6.729302406311035 10.28160095214844 C 4.944522380828857 9.149340629577637 2.555042266845703 8.505000114440918 2.3168945517682e-06 8.46720027923584 L 2.3168945517682e-06 2.999700546264648 C 2.3168945517682e-06 1.345660448074341 1.345682263374329 5.050659410699154e-07 2.999722242355347 5.050659410699154e-07 L 132.2874298095703 5.050659410699154e-07 C 133.9414367675781 5.050659410699154e-07 135.287109375 1.345660448074341 135.287109375 2.999700546264648 L 135.287109375 5.969960689544678 C 132.3577880859375 6.576800346374512 130.0364074707031 7.701000690460205 128.9174041748047 9.055240631103516 C 127.7126998901367 8.770260810852051 126.4659194946289 8.625600814819336 125.2107009887695 8.625600814819336 C 122.3318405151367 8.625600814819336 119.5084991455078 9.396780967712402 117.0459060668945 10.85580062866211 C 114.6557998657227 12.27186012268066 112.6652603149414 14.29350090026855 111.2895050048828 16.70219993591309 C 109.9114990234375 14.29270076751709 107.9209442138672 12.27104091644287 105.5313034057617 10.85580062866211 C 103.0696258544922 9.396780967712402 100.2462844848633 8.625600814819336 97.36650085449219 8.625600814819336 C 94.48731994628906 8.625600814819336 91.66429901123047 9.396780967712402 89.20259857177734 10.85580062866211 C 86.8114013671875 12.27286052703857 84.82025909423828 14.29512023925781 83.44441986083984 16.70400047302246 L 83.44351959228516 16.70580101013184 Z" stroke="none" fill="#6d3720"/></g><rect width="151.176" height="17.179" rx="8.59" transform="translate(727.455 357.447)" fill="#9a451f"/><rect width="125.875" height="14.304" rx="7.152" transform="translate(738.956 337.321)" fill="#d91f1f"/><g transform="translate(751.123 357.447)" fill="#ffe285"><path d="M15.294,15.925h0L0,0H32.881L15.295,15.924Z" stroke="none"/><path d="M 15.39092540740967 13.13872718811035 L 27.69221496582031 2.000001907348633 L 4.693675518035889 2.000001907348633 L 15.39092540740967 13.13872718811035 M 15.29368114471436 15.92486190795898 L 15.29271125793457 15.92384147644043 L 9.686278872322873e-07 1.907653768284945e-06 L 32.88064193725586 1.907653768284945e-06 L 15.29473114013672 15.92391204833984 L 15.29368114471436 15.92486190795898 Z" stroke="none" fill="rgba(109,55,32,0.96)"/></g><text transform="translate(985 400)" fill="#9a451f" font-size="128" font-family="OpenSans-SemiBold, Open Sans" font-weight="600"><tspan x="0" y="0">#</tspan><tspan y="0" fill="#333">SNACKAMAT</tspan></text></g></svg>