<svg xmlns="http://www.w3.org/2000/svg" width="1872.042" height="300" viewBox="0 0 1872.042 300"><g transform="translate(-183.418 -405.65)"><path d="M79-28.26H54.032l-8.47,45.771H26.838l8.47-45.771H9.563V-45.9H38.652l6.464-34.942H18.033v-17.75H48.46l8.693-46.441H75.766L67.072-98.591H92.149l8.693-46.441h18.613l-8.693,46.441h23.182v17.75H107.418L100.954-45.9h24.631V-28.26H97.61L89.14,17.511H70.527ZM57.376-45.9H82.341l6.464-34.942H63.84Z" transform="translate(514.898 617.033)" fill="#9a451f"/><path d="M100.42-24.118q0-10.717-7.522-16.521T65.763-52.36q-19.613-5.916-31.2-13.172Q12.386-79.487,12.386-101.925q0-19.647,15.991-32.373t41.51-12.726q16.938,0,30.2,6.251a49.591,49.591,0,0,1,20.838,17.805A45.725,45.725,0,0,1,128.5-97.348H100.42q0-12.726-7.968-19.926t-22.789-7.2q-13.818,0-21.451,5.916t-7.633,16.521q0,8.93,8.246,14.9t27.19,11.61q18.944,5.637,30.422,12.838t16.827,16.521q5.349,9.321,5.349,21.824,0,20.317-15.545,32.317t-42.178,12a79.141,79.141,0,0,1-32.372-6.53Q23.752,6.916,15.562-4.582A44.983,44.983,0,0,1,7.371-31.374H35.564q0,13.842,9.138,21.433T70.889-2.35q14.71,0,22.12-5.972A19.282,19.282,0,0,0,100.42-24.118ZM282.06,17.744H253.867L181.545-97.571V17.744H153.352V-144.791h28.193L254.09-29.029V-144.791h27.97ZM408.2-20.1h-62.85L332.206,17.744H302.9l61.29-162.535h25.3l61.4,162.535H421.466ZM353.267-42.872h47.026L376.78-110.3Zm237.469,7.7Q588.285-9.159,571.57,5.409T527.107,19.977q-19.39,0-34.155-9.21T470.163-15.41q-8.023-16.968-8.358-39.406V-70q0-23,8.135-40.522t23.346-27.015q15.211-9.489,35.158-9.489,26.856,0,43.237,14.624t19.055,41.3H562.655q-2.006-17.526-10.2-25.284t-24.014-7.758q-18.387,0-28.249,13.452T490.11-71.226v14.4q0,26.345,9.416,40.187T527.107-2.8q16.6,0,24.962-7.479t10.586-24.894Zm71.765-17.3L644.114-32.937v50.68H615.921V-144.791h28.193v76.244l15.6-19.312,47.472-56.932h34.1L681-72.789l63.741,90.533H711.31ZM850.6-20.1h-62.85L774.605,17.744H745.3l61.29-162.535h25.3l61.4,162.535H863.865ZM795.667-42.872h47.026L819.18-110.3ZM948.222-144.791l46.8,124.58,46.692-124.58h36.439V17.744h-28.082V-35.839l2.786-71.667-47.917,125.25h-20.17L936.967-107.394l2.786,71.555V17.744H911.671V-144.791ZM1204.3-20.1h-62.85L1128.3,17.744h-29.307l61.29-162.535h25.3l61.4,162.535h-29.419Zm-54.938-22.773h47.026L1172.876-110.3Zm219.862-79.146h-50.592V17.744h-27.97V-122.018h-50.146v-22.773h128.708Z" transform="translate(686.235 618.796)" fill="#333"/><g transform="translate(-762.582 222.65)"><g transform="translate(946.001 183)" fill="#333"><path d="M 149.9998474121094 295.0000305175781 C 140.1585388183594 295.0000305175781 130.3248443603516 294.0088500976562 120.7720336914062 292.0540771484375 C 111.4645309448242 290.1494750976562 102.3093490600586 287.3075561523438 93.56089782714844 283.6072387695312 C 84.97012329101562 279.9736633300781 76.68394470214844 275.4760131835938 68.93253326416016 270.2392883300781 C 61.25348663330078 265.0513916015625 54.03226089477539 259.0932922363281 47.46948623657227 252.530517578125 C 40.90666961669922 245.9677581787109 34.94862365722656 238.7465209960938 29.76071548461914 231.0674285888672 C 24.52398681640625 223.3160247802734 20.02635192871094 215.0298004150391 16.39276123046875 206.4390258789062 C 12.69244194030762 197.6905670166016 9.850533485412598 188.5353851318359 7.945941925048828 179.2278900146484 C 5.991169452667236 169.6750183105469 4.999987602233887 159.8413391113281 4.999987602233887 149.9999847412109 C 4.999987602233887 140.1586608886719 5.991169452667236 130.3249816894531 7.945941925048828 120.7721176147461 C 9.850533485412598 111.4646148681641 12.69244194030762 102.3094329833984 16.39276123046875 93.56098175048828 C 20.02635192871094 84.97020721435547 24.52398681640625 76.68402099609375 29.76071548461914 68.9326171875 C 34.94857788085938 61.25352478027344 40.90666961669922 54.03229522705078 47.46948623657227 47.46952438354492 C 54.03226089477539 40.90670394897461 61.25348663330078 34.94866180419922 68.93253326416016 29.76075172424316 C 76.68394470214844 24.52402305603027 84.97012329101562 20.02638626098633 93.56089782714844 16.39279556274414 C 102.3093490600586 12.69247817993164 111.4645309448242 9.850568771362305 120.7720336914062 7.945978164672852 C 130.3248443603516 5.991205215454102 140.1585388183594 5.000023365020752 149.9998474121094 5.000023365020752 C 159.8412170410156 5.000023365020752 169.6748504638672 5.991205215454102 179.2277221679688 7.945978164672852 C 188.5352630615234 9.850568771362305 197.6904449462891 12.69247817993164 206.4389038085938 16.39279556274414 C 215.0297088623047 20.02638626098633 223.3159027099609 24.52402305603027 231.0673522949219 29.76075172424316 C 238.7463989257812 34.94866180419922 245.9676666259766 40.9067497253418 252.5304412841797 47.46952438354492 C 259.09326171875 54.03229522705078 265.0513610839844 61.25352478027344 270.2392272949219 68.9326171875 C 275.4759826660156 76.68402099609375 279.9736633300781 84.97020721435547 283.6072692871094 93.56098175048828 C 287.3075256347656 102.3094329833984 290.1494750976562 111.4646148681641 292.0540771484375 120.7721176147461 C 294.0088500976562 130.3249816894531 295.0000305175781 140.1586608886719 295.0000305175781 149.9999847412109 C 295.0000305175781 164.2363891601562 292.942138671875 178.3012542724609 288.883544921875 191.8039398193359 C 284.9540710449219 204.8768920898438 279.1817626953125 217.3311614990234 271.7268371582031 228.8208465576172 L 270.8449096679688 230.1801147460938 L 270.9278564453125 231.79833984375 C 271.7137451171875 247.1291198730469 273.5148010253906 260.2929382324219 276.2808837890625 270.9241638183594 C 278.0390014648438 277.6812438964844 280.2161560058594 283.4741516113281 282.7519836425781 288.1419677734375 C 283.4046020507812 289.34326171875 284.0860900878906 290.4794616699219 284.7952270507812 291.5490417480469 C 280.9954223632812 290.4096984863281 276.532958984375 288.9993896484375 271.4625244140625 287.3350830078125 C 257.5275268554688 282.7610778808594 241.3904418945312 277.0516967773438 230.3069458007812 273.0675659179688 L 228.0410766601562 272.2530822753906 L 225.9914855957031 273.5166931152344 C 214.8072204589844 280.4123840332031 202.7527618408203 285.7450256347656 190.1629943847656 289.3664855957031 C 177.1676635742188 293.1046142578125 163.6548004150391 295.0000305175781 149.9998474121094 295.0000305175781 Z" stroke="none"/><path d="M 149.9998474121094 10 C 72.80364990234375 10 10 72.80374145507812 10 149.9999847412109 C 10 227.1962280273438 72.80364990234375 290 149.9998474121094 290 C 175.9913482666016 290 201.3614044189453 282.8284301757812 223.3674011230469 269.2606201171875 L 227.466552734375 266.7332763671875 L 231.998291015625 268.3622741699219 C 250.325927734375 274.9504089355469 264.4519348144531 279.7925415039062 274.9306335449219 283.2060546875 C 270.0215454101562 270.7667846679688 267.0487365722656 253.7915954589844 265.9343872070312 232.0542907714844 L 265.7684936523438 228.8178863525391 L 267.5324096679688 226.0993347167969 C 282.2308349609375 203.4457397460938 290 177.1309814453125 290 149.9999847412109 C 290 72.80374145507812 227.1961975097656 10 149.9998474121094 10 M 149.9998474121094 0 C 232.8426513671875 0 300 67.15724182128906 300 149.9999847412109 C 300 180.0648803710938 291.1512451171875 208.0695343017578 275.9212951660156 231.5423278808594 C 277.1781005859375 256.0588989257812 281.7366638183594 287.0926513671875 296.2926025390625 296.3242797851562 C 300.3764038085938 298.9143981933594 300.8684387207031 299.9997253417969 298.82861328125 299.9997253417969 C 291.5797729492188 299.9997253417969 252.3473815917969 286.3035278320312 228.6155548095703 277.7727966308594 C 205.7561950683594 291.8667297363281 178.8259582519531 300 149.9998474121094 300 C 67.15719604492188 300 0 232.8427886962891 0 149.9999847412109 C 0 67.15724182128906 67.15719604492188 0 149.9998474121094 0 Z" stroke="none" fill="#333"/></g><ellipse cx="117.481" cy="117.48" rx="117.481" ry="117.48" transform="translate(978.813 215.812)" fill="#fff"/><path d="M12.128,223.989v-.042l.1,0,3.524-100.895-3.884-1.088a7.65,7.65,0,0,0-1.706-3.617c-1.142-1.043-4.945-2.071-5.646-2.255H4.43l0-.022-.026-.007h.024c-.3-1.346-.568-2.688-.807-3.989A214.865,214.865,0,0,1,0,71.343a234.658,234.658,0,0,1,1.589-27.77A149.355,149.355,0,0,1,5.919,20.9C7.775,14.345,9.936,9.2,12.343,5.606,14.834,1.886,17.481,0,20.209,0a5.758,5.758,0,0,1,.831.059A8.753,8.753,0,0,1,22.071,0,8.886,8.886,0,0,1,30.8,7.266v156.5l2.1,60.181.214-.007v.056a10.492,10.492,0,1,1-20.984,0Z" transform="matrix(0.719, 0.695, -0.695, 0.719, 1169.547, 273.932)" fill="#333"/><path d="M13.09,226.832a10.683,10.683,0,0,1-3.171-7.552l.1,0L15.094,73.89a22.435,22.435,0,0,1-7.836-3.7,22.721,22.721,0,0,1-4.9-4.91,22.493,22.493,0,0,1-3.2-6.225L6.207.694,6.24.667l.233-.19H8.147L5.872,44.888a2.947,2.947,0,0,0,5.648.306l-.028-.54c0-.026,0-.052.006-.078L13.809.477h2.356l.769,44.032A2.92,2.92,0,0,0,18.5,47.047a2.955,2.955,0,0,0,4.778-.322,2.919,2.919,0,0,0,1.078-2.216L25.124.477h2.192c0,.048,0,.1,0,.152l2.316,44.19-.039.757a2.947,2.947,0,0,0,5.648.306L32.917.477h1.875c.082.066.163.131.243.2L42.093,59.1A22.664,22.664,0,0,1,26.06,73.917l5.076,145.366.275-.01a10.746,10.746,0,0,1-18.321,7.559Z" transform="matrix(0.719, 0.695, -0.695, 0.719, 1123.995, 236.258)" fill="#333"/></g></g></svg>