<?xml version="1.0" standalone="no"?>
<!DOCTYPE svg PUBLIC "-//W3C//DTD SVG 20010904//EN"
 "http://www.w3.org/TR/2001/REC-SVG-20010904/DTD/svg10.dtd">
<svg version="1.0" xmlns="http://www.w3.org/2000/svg"
 width="1030.000000pt" height="1030.000000pt" viewBox="0 0 1030.000000 1030.000000"
 preserveAspectRatio="xMidYMid meet">
<metadata>
Created by potrace 1.11, written by Peter Selinger 2001-2013
</metadata>
<g transform="translate(0.000000,1030.000000) scale(0.100000,-0.100000)"
fill="#000000" stroke="none">
<path d="M6089 10017 c-65 -33 -193 -126 -273 -197 -207 -185 -331 -429 -592
-1160 -39 -112 -63 -183 -114 -347 -18 -57 -36 -103 -41 -103 -5 0 -48 7 -96
15 -140 23 -395 43 -459 36 -6 0 13 -27 43 -58 153 -162 241 -348 246 -521 l2
-67 -60 2 c-33 1 -100 4 -150 7 -175 11 -593 6 -697 -8 -27 -3 -69 -9 -95 -12
-93 -12 -260 -66 -368 -119 -101 -49 -284 -163 -321 -200 -8 -8 -19 -15 -23
-15 -4 0 -24 -16 -45 -36 -38 -36 -41 -37 -130 -40 -356 -13 -545 -24 -681
-39 -16 -2 -64 -7 -105 -10 -41 -4 -82 -8 -90 -10 -8 -1 -40 -6 -70 -10 -30
-4 -62 -9 -70 -10 -8 -1 -35 -6 -60 -10 -58 -9 -74 -12 -135 -25 -27 -6 -59
-12 -70 -14 -375 -71 -800 -546 -1041 -1162 -99 -252 -150 -458 -181 -724 -16
-129 -8 -618 12 -805 2 -22 7 -67 10 -100 6 -67 12 -120 20 -180 3 -22 8 -58
10 -79 5 -41 9 -63 25 -156 5 -30 12 -73 16 -95 20 -141 95 -477 158 -710 51
-188 161 -520 217 -652 218 -522 390 -819 635 -1103 103 -120 304 -312 357
-342 7 -4 67 47 147 124 74 71 230 221 345 333 116 112 248 240 295 285 47 45
181 175 299 288 117 114 244 236 281 272 37 36 164 158 281 272 118 113 246
237 285 275 39 37 176 169 304 293 128 124 263 254 300 290 37 36 123 118 190
183 l122 119 -45 96 c-116 249 -121 504 -17 757 8 19 66 73 159 148 80 64 158
127 172 140 15 12 126 102 248 200 121 98 226 183 233 190 7 7 94 77 193 156
99 80 182 148 185 151 3 3 50 41 105 85 55 44 102 82 105 85 3 3 41 35 85 70
44 35 127 103 185 150 58 47 126 103 151 123 l47 38 28 -26 29 -25 -65 -61
c-36 -34 -116 -110 -178 -168 -63 -58 -133 -124 -156 -146 -37 -34 -160 -149
-310 -288 -58 -55 -286 -268 -380 -357 -118 -111 -230 -215 -235 -218 -3 -1
-5 -25 -5 -52 0 -41 5 -55 29 -80 30 -31 100 -50 128 -34 14 8 154 136 312
286 38 36 84 79 101 95 37 33 221 204 280 260 22 21 91 85 154 143 137 128
148 138 291 272 63 59 134 125 158 146 l45 40 32 -31 33 -30 -19 -25 c-11 -13
-79 -88 -152 -166 -73 -77 -165 -174 -203 -216 -104 -112 -159 -170 -207 -221
-24 -26 -65 -71 -93 -101 -58 -62 -259 -278 -325 -348 -246 -262 -264 -285
-256 -332 3 -13 5 -29 5 -36 2 -23 97 -110 127 -116 32 -6 47 -4 84 12 14 6
312 298 664 650 l639 640 28 -26 c16 -14 29 -30 29 -36 0 -6 -17 -29 -38 -51
-20 -22 -62 -69 -92 -105 -30 -36 -57 -67 -60 -70 -3 -3 -50 -57 -105 -120
-55 -63 -104 -120 -110 -126 -5 -6 -32 -37 -60 -69 -51 -60 -257 -296 -304
-350 -389 -443 -433 -497 -438 -534 -10 -72 44 -131 120 -131 37 0 48 9 122
95 28 32 55 63 60 69 6 6 37 42 70 81 33 38 67 76 75 85 13 14 75 86 143 164
10 12 40 46 66 76 26 30 130 150 231 265 100 116 198 228 218 250 19 22 86
100 150 173 63 72 119 132 123 132 18 0 48 -40 44 -59 -3 -19 -61 -97 -520
-701 -111 -146 -305 -402 -432 -570 -253 -336 -368 -487 -386 -510 -7 -8 -25
-33 -42 -56 -18 -26 -47 -49 -79 -64 -61 -27 -144 -57 -177 -64 -13 -3 -35 -8
-49 -12 -52 -13 -265 -13 -337 1 -86 17 -179 48 -244 80 -26 14 -49 21 -51 16
-3 -7 -55 -66 -178 -201 -14 -15 -54 -60 -90 -101 -36 -40 -74 -82 -85 -94
-11 -11 -38 -41 -60 -66 -95 -107 -370 -413 -427 -474 -20 -22 -45 -49 -55
-61 -26 -30 -153 -172 -183 -204 -14 -15 -54 -60 -90 -100 -36 -41 -74 -83
-85 -94 -11 -12 -54 -60 -95 -106 -41 -47 -80 -89 -86 -95 -5 -5 -46 -50 -90
-100 -43 -49 -88 -99 -99 -110 -11 -12 -49 -55 -85 -95 -36 -40 -74 -83 -85
-94 -11 -12 -54 -59 -95 -106 -41 -47 -78 -87 -81 -90 -3 -3 -47 -52 -99 -110
-51 -58 -97 -109 -104 -115 -6 -5 -42 -46 -81 -89 -38 -44 -77 -87 -85 -96 -8
-9 -46 -51 -85 -94 -38 -43 -79 -87 -89 -97 -19 -18 -19 -19 5 -28 14 -5 45
-18 69 -29 116 -52 439 -166 535 -188 6 -1 73 -18 150 -38 77 -19 151 -37 165
-40 14 -3 61 -12 104 -21 44 -8 93 -18 110 -21 17 -2 38 -7 46 -9 8 -2 35 -6
60 -9 25 -4 56 -8 70 -10 30 -5 157 -23 218 -31 93 -11 120 -14 192 -21 41 -3
82 -8 91 -9 9 -2 68 -6 130 -10 63 -4 117 -9 120 -11 6 -3 152 134 456 432
l144 140 -41 72 -40 72 22 43 c38 73 32 135 -25 245 l-47 94 34 56 c19 31 55
86 80 122 25 36 51 72 56 80 142 207 440 597 555 724 6 6 57 65 115 131 58 66
132 149 165 185 108 117 488 493 590 585 54 50 120 108 145 131 257 232 686
549 982 727 125 75 375 194 488 231 100 33 120 39 200 52 113 20 221 4 291
-41 57 -37 166 -154 191 -204 34 -71 33 -197 -4 -271 -29 -58 -41 -72 -375
-416 -116 -121 -241 -250 -278 -289 -37 -38 -169 -175 -294 -304 -124 -128
-253 -262 -286 -296 -33 -34 -155 -161 -271 -281 -117 -121 -249 -257 -294
-304 -45 -47 -178 -184 -295 -305 -117 -121 -241 -249 -275 -285 -34 -36 -157
-163 -273 -284 -117 -120 -243 -250 -281 -290 -130 -135 -521 -539 -541 -559
-20 -19 -18 -19 225 -13 135 4 269 9 298 11 176 11 427 33 472 40 14 3 48 7
76 10 28 3 60 7 71 9 11 3 44 7 73 11 29 4 62 9 74 11 11 2 38 6 61 10 89 12
309 58 465 95 338 81 664 191 950 319 l93 42 106 -31 c58 -17 176 -51 261 -77
85 -25 164 -48 175 -51 11 -3 49 -14 85 -25 36 -11 72 -21 80 -23 14 -4 203
-59 355 -104 39 -12 79 -23 90 -26 11 -2 58 -16 105 -31 47 -14 99 -29 115
-34 34 -9 238 -69 362 -106 45 -14 90 -27 100 -29 10 -2 41 -11 68 -19 28 -9
50 -16 51 -16 1 0 -74 258 -179 615 -36 121 -111 378 -167 570 -56 193 -110
375 -119 405 -10 30 -26 87 -36 126 l-19 71 36 59 c86 142 172 337 233 526 35
107 107 392 119 468 3 19 8 46 11 60 16 79 29 167 45 295 6 50 12 104 14 120
8 53 16 138 21 205 2 36 7 97 10 135 34 411 40 1363 10 1530 -41 231 -57 296
-106 439 -72 211 -162 394 -296 599 -37 56 -70 104 -73 107 -3 3 -17 21 -30
40 -27 38 -30 42 -121 150 -76 91 -286 302 -354 356 -158 126 -370 229 -588
285 -94 24 -88 23 -187 39 -41 6 -86 13 -100 16 -186 29 -935 23 -1195 -11
-29 -4 -29 -3 -10 12 53 41 263 116 387 137 96 17 221 13 293 -8 28 -8 61 -17
75 -22 39 -11 -53 59 -130 100 -144 76 -334 127 -565 152 -33 4 -73 8 -90 10
-41 5 -417 4 -485 -1 -83 -5 -183 -16 -200 -20 -8 -2 -46 -6 -83 -10 -37 -3
-77 -8 -89 -10 -11 -2 -41 -7 -67 -10 -50 -5 -123 -15 -158 -20 -27 -4 -245
-17 -331 -19 -34 -1 -67 3 -71 8 -5 6 -18 43 -30 82 -49 165 -110 281 -190
358 -35 34 -40 44 -36 73 3 18 7 50 10 71 3 20 7 48 10 62 3 14 7 34 9 45 30
154 112 371 190 500 95 158 178 251 500 564 113 109 177 186 206 245 28 59 34
150 13 219 -8 29 -16 57 -18 62 -4 19 -17 50 -38 94 -48 97 -123 116 -238 58z"/>
</g>
</svg>
