<?xml version="1.0" standalone="no"?>
<!DOCTYPE svg PUBLIC "-//W3C//DTD SVG 20010904//EN"
 "http://www.w3.org/TR/2001/REC-SVG-20010904/DTD/svg10.dtd">
<svg version="1.0" xmlns="http://www.w3.org/2000/svg"
 width="1024.000000pt" height="1024.000000pt" viewBox="0 0 1024.000000 1024.000000"
 preserveAspectRatio="xMidYMid meet">
<metadata>
Created by potrace 1.11, written by Peter Selinger 2001-2013
</metadata>
<g transform="translate(0.000000,1024.000000) scale(0.100000,-0.100000)"
fill="#000000" stroke="none">
<path d="M4870 10234 c-766 -50 -1383 -210 -2019 -524 -219 -108 -332 -173
-536 -307 -497 -328 -904 -705 -1260 -1168 -572 -743 -919 -1607 -1030 -2560
-36 -313 -30 -832 15 -1194 140 -1129 658 -2185 1464 -2986 411 -408 837 -712
1351 -965 582 -286 1091 -432 1765 -506 195 -22 761 -25 955 -6 509 50 971
160 1425 339 200 79 500 224 670 323 69 40 130 73 135 73 6 0 170 -56 365
-125 1335 -474 2027 -680 2065 -617 10 16 -21 45 -117 111 -146 100 -247 223
-346 424 -178 356 -296 914 -343 1609 l-12 180 70 115 c368 603 605 1266 702
1960 38 272 45 382 44 675 0 306 -17 550 -54 795 -219 1447 -1036 2721 -2262
3527 -684 449 -1464 724 -2297 808 -146 15 -629 27 -750 19z m690 -1138 c479
-57 884 -173 1305 -373 456 -218 838 -499 1204 -888 434 -461 772 -1074 936
-1700 203 -774 175 -1567 -84 -2326 -121 -354 -306 -714 -529 -1029 -413 -582
-1020 -1074 -1662 -1346 -988 -420 -2033 -443 -3035 -67 -66 25 -124 49 -129
53 -17 16 1166 1311 1767 1933 320 332 1083 1121 1695 1754 612 634 1130 1173
1152 1198 72 84 88 210 39 307 -31 61 -98 128 -154 154 -239 112 -807 -170
-1447 -718 -523 -448 -986 -967 -1357 -1521 l-73 -109 35 -66 c49 -92 54 -129
28 -187 l-21 -48 31 -55 c29 -53 30 -55 12 -75 -10 -11 -475 -461 -1033 -1000
-558 -539 -1076 -1040 -1151 -1114 l-136 -133 -109 76 c-217 152 -430 336
-635 549 -98 103 -209 232 -208 243 0 4 18 21 40 37 21 17 717 784 1545 1705
829 921 1526 1696 1550 1722 l43 46 71 -29 c187 -79 404 -77 572 3 l67 33 551
728 c302 400 550 734 550 741 0 7 -8 20 -19 30 -18 16 -38 -5 -482 -515 -255
-293 -469 -539 -475 -547 -5 -8 -27 -14 -48 -15 -31 -1 -44 5 -67 31 -57 63
-74 38 446 636 261 300 475 549 475 554 0 4 -11 15 -24 24 -23 16 -25 14 -517
-478 -272 -273 -506 -502 -521 -510 -47 -24 -75 -18 -126 30 -40 38 -47 50
-47 84 0 37 9 49 106 153 59 63 280 301 493 529 l386 414 -25 26 c-18 18 -29
22 -39 15 -8 -6 -244 -225 -525 -487 -494 -462 -512 -478 -550 -478 -71 0
-117 88 -73 138 9 11 231 219 492 462 261 243 488 455 505 471 l30 29 -22 21
-21 21 -729 -591 -728 -592 -30 -82 c-27 -75 -29 -93 -30 -217 0 -149 18 -232
75 -337 l28 -52 -1532 -1479 c-842 -813 -1586 -1531 -1653 -1596 l-122 -117
-58 113 c-229 452 -357 879 -420 1398 -24 202 -24 658 0 860 74 608 253 1138
559 1646 301 503 732 950 1228 1275 544 357 1186 582 1820 638 69 6 139 13
155 15 68 10 529 -4 655 -18z"/>
</g>
</svg>
